<?xml version="1.0" encoding="UTF-8"?>
<svg id="_图层_2" data-name="图层 2" xmlns="http://www.w3.org/2000/svg" viewBox="0 0 484.35 159.84">
  <defs>
    <style>
      .cls-1 {
        fill: #fff;
      }

      .cls-1, .cls-2 {
        fill-rule: evenodd;
        stroke-width: 0px;
      }

      .cls-2 {
        fill: #f08300;
      }
    </style>
  </defs>
  <g id="_图层_1-2" data-name="图层 1">
    <g>
      <path class="cls-1" d="m236.91,30.27h30.77c-10.56,7.55-9.82,20.03-2.99,29.98,2.09,3.04,4.62,6.15,7.19,9.23,8.49,10.16,17.7,17,24.79,26.73,9.12,12.52,12.88,26.4,6.84,41.89-3.12,8-8.69,14.67-16.19,18.14-5.67,2.62-12.15,3.59-18.91,3.59h-35.5v-27.39h34.4s.02,0,.02,0h.07c6.02-.05,10.89-4.95,10.89-10.98,0-5.22-4.15-8.89-7.29-12.46-7.91-9.01-16.27-18.24-20.71-22.86-15.82-16.42-20.17-35.15-13.37-55.89h0Zm174.86,90.41V30.27h20.29v13.42c7.06-8.42,14.16-11.75,24.96-11.42,5.85,0,15.03,3.88,19.68,9.42,4.43,5.65,7.64,10.35,7.64,20.72v58.27h-22.17v-50.62c0-2.96.01-6.18-.47-9.17-.38-2.37-1.7-4.94-3.66-7.05-5.65-6.06-16.08-5.88-21.27.83-2.77,3.55-3.01,7.05-3.01,15.9v50.12h-22Zm-78.58-42.06l40.01-24.15c-1.76-1.93-3.84-3.41-6.29-4.37-2.45-.96-5.22-1.45-8.26-1.45-7.33,0-13.42,2.47-18.3,7.42-4.88,4.94-7.33,11.19-7.33,18.72,0,1.08.03,1.85.06,2.38.03.54.06,1.02.12,1.45h0Zm63.42,30.71c-6.03,3.89-12.15,6.79-18.33,8.72-6.21,1.96-12.64,2.93-19.28,2.93s-12.64-1.11-18.33-3.29c-5.66-2.19-10.74-5.43-15.27-9.69-4.56-4.32-8.02-9.26-10.42-14.77-2.4-5.51-3.61-11.39-3.61-17.62s1.18-12.19,3.52-17.64c2.34-5.43,5.83-10.34,10.51-14.71,4.53-4.38,9.53-7.64,15.07-9.77,5.51-2.13,11.69-3.21,18.54-3.21,9.24,0,17.52,2.21,24.86,6.65,7.33,4.43,13.37,10.91,18.1,19.4l-61.49,37.55c2.66,2.41,5.6,4.26,8.89,5.48,3.26,1.22,6.84,1.82,10.74,1.82s8.14-.79,12.59-2.41c4.47-1.59,9.47-4.15,15.07-7.64l8.86,18.21h0ZM47.36,84.88h32.26l-16.13-34.6-16.13,34.6h0Zm40.41,17.47h-48.55l-8.54,18.33H0L42.15,30.27h42.69l42.15,90.41h-30.67l-8.54-18.33Z"/>
      <path class="cls-2" d="m158,81.91c.89,2.51,2.24,4.8,3.97,6.77,3.79,4.32,9.35,7.05,15.52,7.05,11.38,0,20.66-9.28,20.66-20.66s-9.28-20.66-20.66-20.66c-3.71,0-7.2.99-10.21,2.71v-26.49c3.38-.77,6.83-1.17,10.21-1.17,25.12,0,45.6,20.48,45.6,45.6s-20.49,45.6-45.6,45.6c-20.78,0-38.38-14.02-43.85-33.09-1.79-6.24-1.75-12.14-1.75-18.58V0h24.96v69.49c0,4.26-.29,8.31,1.15,12.41h0Z"/>
    </g>
  </g>
</svg>